# xmcd
#
# Track frame offsets:
#	150
#	14098
#	24220
#	37164
#	50816
#	60533
#	71503
#	82892
#	95727
#	109284
#	121938
#	135476
#	147241
#	162164
#	176893
#	190072
#	200028
#	210222
#	221643
#	233468
#	246332
#	255244
#	270164
#	279809
#	293279
#	301538
#
# Disc length: 4204 seconds
#
# Revision: 1
# Processed by: cddbd v1.5.2PL0 Copyright (c) Steve Scherf et al.
# Submitted via: audiograbber 1.83.01
#
DISCID=66106a1a
DTITLE=Various Artist - Hollywood Rock'N'Roll Record Hop
DYEAR=1900
DGENRE=R&B
TTITLE0=The Cadets - Stranded In The Jungle
TTITLE1=Shirley Gunter and The Queens - Oop Shoop
TTITLE2=The Jacks - Why Don't You Write Me?
TTITLE3=The Cadets - Rollin' Stone
TTITLE4=Joe Houston - Blow Joe Blow
TTITLE5=Dolly Cooper - Teenage Prayer
TTITLE6=Etta James - Good Rockin' Daddy
TTITLE7=Marvin and Johnny - Tick Tock
TTITLE8=The Cliques - The Girl In My Dreams
TTITLE9=The Cadets - I Want You
TTITLE10=Young Jessie and The Cadets - Mary Lou
TTITLE11=Joe Turner and Pete Johnson - Kansas City Blues
TTITLE12=Etta James - Crazy Feeling
TTITLE13=The Cadets - True Love
TTITLE14=Johnny "Guitar" Watson - Hot Little Mama
TTITLE15=BB King - Jump With You Baby
TTITLE16=The Rams - Rock Bottom
TTITLE17=The Ewing Sisters - My Babe
TTITLE18=BB King - Bim Bam
TTITLE19=Zola Taylor - Oh My Dear
TTITLE20=The Teen Queens - Rock Everybody (Take 2, Fast Version)
TTITLE21=Hadda Brooks - Old Man River
TTITLE22=Mercy Dee - Romp and Stomp Blues
TTITLE23=Donna Hightower - Dog Gone It
TTITLE24=Maxwell Davis and His Mod Cats - Everybody's Rockin'
TTITLE25=Jesse Belvin - Goodnight My Love, Pleasant Dreams
EXTD=
EXTT0=
EXTT1=
EXTT2=
EXTT3=
EXTT4=
EXTT5=
EXTT6=
EXTT7=
EXTT8=
EXTT9=
EXTT10=
EXTT11=
EXTT12=
EXTT13=
EXTT14=
EXTT15=
EXTT16=
EXTT17=
EXTT18=
EXTT19=
EXTT20=
EXTT21=
EXTT22=
EXTT23=
EXTT24=
EXTT25=
PLAYORDER=
